<svg width="30.000000" height="30.001465" viewBox="0 0 30 30.0015" fill="none" xmlns="http://www.w3.org/2000/svg" xmlns:xlink="http://www.w3.org/1999/xlink">
	<desc>
			Created with Pixso.
	</desc>
	<path d="M28.2051 1.79297C25.2373 -1.1748 20.8047 -0.451172 14.999 3.91797C9.19531 -0.451172 4.76367 -1.17578 1.79395 1.79297C-1.17676 4.76221 -0.451172 9.19287 3.91895 14.998C-0.451172 20.8027 -1.17578 25.2349 1.79395 28.2041C2.91895 29.3711 4.47656 30.021 6.09668 30.001C8.56152 30.001 11.5361 28.686 14.999 26.0801C18.4609 28.686 21.4375 30.001 23.9023 30.001C25.5234 30.021 27.0801 29.3711 28.2051 28.2041C31.1738 25.2349 30.4551 20.8042 26.0801 14.998C30.4492 9.19287 31.1738 4.76221 28.2051 1.79297L28.2051 1.79297M23.8574 2.53223C24.8232 2.50293 25.7568 2.87305 26.4414 3.55518C28.624 5.73975 27.0107 9.44775 24.4561 12.981C23.4082 11.7451 22.2285 10.4619 20.8828 9.11475C19.5371 7.76904 18.25 6.58789 17.0156 5.54004C19.3867 3.82275 21.8398 2.53223 23.8574 2.53223L23.8574 2.53223M22.8887 14.998C21.625 16.5239 20.2861 17.9502 19.1191 19.124C17.9512 20.2979 16.5254 21.624 14.999 22.8882C13.4746 21.624 12.0479 20.2861 10.8799 19.124C9.71191 17.9629 8.37305 16.5239 7.10938 14.998C8.37305 13.4731 9.71191 12.0459 10.8799 10.8789C12.0479 9.71289 13.4746 8.37207 14.999 7.10693C16.5254 8.37012 17.9512 9.71094 19.125 10.8789C20.2988 12.0469 21.625 13.4731 22.8887 14.998L22.8887 14.998M3.55859 3.55713C4.24023 2.87305 5.17578 2.50195 6.14258 2.53223C8.1582 2.53223 10.6113 3.82275 12.9844 5.54004C11.749 6.58789 10.4639 7.76904 9.11621 9.11475C7.76855 10.4619 6.59082 11.7397 5.54199 12.981C2.9873 9.44775 1.37207 5.73975 3.55859 3.55713L3.55859 3.55713M3.55859 26.4351C1.375 24.252 2.9873 20.543 5.54199 17.0107C6.59082 18.2461 7.77148 19.5298 9.11621 20.877C10.4609 22.2231 11.7412 23.4058 12.9785 24.4541C9.44629 27.0122 5.73828 28.6211 3.55859 26.4351L3.55859 26.4351M26.4365 26.4351C24.2539 28.6162 20.5479 27.0068 17.0166 24.4541C18.249 23.4058 19.5342 22.2197 20.8779 20.877C22.2217 19.5342 23.4033 18.251 24.4512 17.0107C27.0107 20.5488 28.6211 24.252 26.4365 26.4351L26.4365 26.4351Z" fill-rule="evenodd" fill="#FFFFFF"/>
	<defs/>
</svg>
