<svg width="30.000000" height="27.477051" viewBox="0 0 30 27.4771" fill="none" xmlns="http://www.w3.org/2000/svg" xmlns:xlink="http://www.w3.org/1999/xlink">
	<desc>
			Created with Pixso.
	</desc>
	<path d="M14.6094 27.4771C13.6152 27.48 12.6611 27.085 11.96 26.3799L7.73047 22.1069C7.20117 21.6641 7.13086 20.876 7.57422 20.3481C8.0166 19.8193 8.80469 19.749 9.33398 20.1919C9.39453 20.2432 9.44922 20.2983 9.49805 20.3579L13.7236 24.6221C14.2178 25.0913 14.9932 25.0913 15.4873 24.6221L22.248 17.8613C22.7363 17.373 23.5273 17.3721 24.0146 17.8599C24.5029 18.3481 24.5029 19.1392 24.0156 19.627L17.2529 26.3882C16.5518 27.0889 15.5996 27.481 14.6094 27.4771L14.6094 27.4771M8.74902 26.228C8.74902 25.5391 8.19043 24.98 7.5 24.98L7.10449 24.98C4.9082 24.937 3.02734 23.3989 2.5498 21.2549C2.27246 19.4199 3.19434 17.6123 4.8418 16.7593C6.03418 16.0991 6.47363 14.605 5.83105 13.4043C3.90918 9.73926 5.32324 5.20996 8.98828 3.28809C12.6533 1.36621 17.1826 2.78027 19.1045 6.44531C19.3262 6.86816 19.5068 7.31104 19.6445 7.76807C20.0195 8.99219 20.9746 9.95215 22.1973 10.332C25.5605 11.355 27.752 14.5869 27.459 18.0889C27.165 21.1123 25.0293 23.6372 22.0967 24.4292C21.4453 24.6523 21.0967 25.3623 21.3203 26.0151C21.54 26.6562 22.2305 27.0049 22.877 26.8022C28.0889 25.314 31.1084 19.8833 29.6211 14.6709C28.6953 11.4282 26.1689 8.88721 22.9316 7.94287C22.4961 7.80713 22.1582 7.46289 22.0303 7.0249C20.3896 1.75586 14.79 -1.18604 9.52148 0.454102C6.01367 1.54492 3.38867 4.47217 2.68359 8.07617C2.24512 10.2832 2.59863 12.5742 3.68262 14.5459C1.09082 15.8833 -0.360352 18.7241 0.0771484 21.6069C0.748047 24.9731 3.67285 27.416 7.10449 27.4771L7.5 27.4771C8.19043 27.4771 8.74902 26.918 8.74902 26.228L8.74902 26.228Z" fill-rule="evenodd" fill="#FFFFFF"/>
	<defs/>
</svg>
