<svg width="30.000000" height="30.000000" viewBox="0 0 30 30" fill="none" xmlns="http://www.w3.org/2000/svg" xmlns:xlink="http://www.w3.org/1999/xlink">
	<desc>
			Created with Pixso.
	</desc>
	<path d="M24.375 20C24.375 20.6909 23.8164 21.25 23.125 21.25L20.625 21.25C19.9336 21.25 19.375 20.6909 19.375 20C19.375 19.3091 19.9336 18.75 20.625 18.75L23.125 18.75C23.8164 18.75 24.375 19.3091 24.375 20L24.375 20M30 18.75L30 25C30 27.7578 27.7578 30 25 30L5 30C2.24316 30 0 27.7578 0 25L0 18.75C0 15.9932 2.24316 13.75 5 13.75L6.25 13.75L6.25 5C6.25 2.24316 8.49316 0 11.25 0L18.75 0C21.5078 0 23.75 2.24316 23.75 5L23.75 13.75L25 13.75C27.7578 13.75 30 15.9932 30 18.75L30 18.75M8.75 13.75L21.25 13.75L21.25 5C21.25 3.62109 20.1289 2.5 18.75 2.5L11.25 2.5C9.87109 2.5 8.75 3.62109 8.75 5L8.75 13.75M5 27.5L13.75 27.5L13.75 16.25L5 16.25C3.62109 16.25 2.5 17.3711 2.5 18.75L2.5 25C2.5 26.3789 3.62109 27.5 5 27.5L5 27.5M27.5 18.75C27.5 17.3711 26.3789 16.25 25 16.25L16.25 16.25L16.25 27.5L25 27.5C26.3789 27.5 27.5 26.3789 27.5 25L27.5 18.75M9.375 18.75L6.875 18.75C6.18359 18.75 5.625 19.3091 5.625 20C5.625 20.6909 6.18359 21.25 6.875 21.25L9.375 21.25C10.0664 21.25 10.625 20.6909 10.625 20C10.625 19.3091 10.0664 18.75 9.375 18.75L9.375 18.75M17.5 6.25C17.5 5.55908 16.9414 5 16.25 5L13.75 5C13.0586 5 12.5 5.55908 12.5 6.25C12.5 6.94092 13.0586 7.5 13.75 7.5L16.25 7.5C16.9414 7.5 17.5 6.94092 17.5 6.25L17.5 6.25Z" fill-rule="evenodd" fill="#FFFFFF"/>
	<defs/>
</svg>
