<svg width="30.000000" height="30.000000" viewBox="0 0 30 30" fill="none" xmlns="http://www.w3.org/2000/svg" xmlns:xlink="http://www.w3.org/1999/xlink">
	<desc>
			Created with Pixso.
	</desc>
	<path d="M16.875 23.75L6.875 23.75C3.08008 23.7461 0.00390625 20.6699 0 16.875L0 6.875C0.00390625 3.08008 3.08008 0.00390625 6.875 0L16.875 0C20.6699 0.00390625 23.7461 3.08008 23.75 6.875L23.75 16.875C23.7461 20.6699 20.6699 23.7461 16.875 23.75L16.875 23.75M6.875 3.75C5.14941 3.75 3.75 5.14893 3.75 6.875L3.75 16.875C3.75 18.6011 5.14941 20 6.875 20L16.875 20C18.6006 20 20 18.6011 20 16.875L20 6.875C20 5.14893 18.6006 3.75 16.875 3.75L6.875 3.75M30 23.125L30 8.75C30 7.71387 29.1602 6.875 28.125 6.875C27.0889 6.875 26.25 7.71387 26.25 8.75L26.25 23.125C26.25 24.8511 24.8506 26.25 23.125 26.25L8.75 26.25C7.71387 26.25 6.875 27.0889 6.875 28.125C6.875 29.1611 7.71387 30 8.75 30L23.125 30C26.9199 29.9961 29.9961 26.9199 30 23.125L30 23.125Z" fill-rule="evenodd" fill="#FFFFFF"/>
	<defs/>
</svg>
