<svg width="30.000000" height="27.500488" viewBox="0 0 30 27.5005" fill="none" xmlns="http://www.w3.org/2000/svg" xmlns:xlink="http://www.w3.org/1999/xlink">
	<desc>
			Created with Pixso.
	</desc>
	<path d="M27.75 1.4541C26.3271 0.265137 24.4492 -0.22998 22.625 0.103027L17.8467 0.971191C16.7441 1.17285 15.7412 1.74121 15 2.58203C14.2559 1.73926 13.25 1.17188 12.1445 0.971191L7.375 0.103027C3.97852 -0.518066 0.722656 1.73096 0.101562 5.12598C0.0341797 5.49707 0 5.87305 0 6.25098L0 19.7422C0 22.7622 2.16016 25.3501 5.13086 25.8911L12.9893 27.3188C14.3184 27.561 15.6807 27.561 17.0107 27.3188L24.875 25.8911C27.8438 25.3472 30 22.7603 30 19.7422L30 6.25098C30.001 4.39697 29.1758 2.63916 27.75 1.4541L27.75 1.4541M13.75 24.9111C13.6445 24.896 13.54 24.8779 13.4346 24.8589L5.5791 23.4321C3.79492 23.1069 2.5 21.5542 2.5 19.7422L2.5 6.25098C2.5 4.1792 4.17871 2.50098 6.25 2.50098C6.47559 2.50098 6.70215 2.52197 6.9248 2.56201L11.7002 3.43701C12.8848 3.6543 13.7471 4.68506 13.75 5.89111L13.75 24.9111M27.5 19.7422C27.5 21.5542 26.2041 23.1069 24.4209 23.4321L16.5654 24.8589C16.46 24.8779 16.3555 24.896 16.25 24.9111L16.25 5.89111C16.25 4.68213 17.1143 3.64697 18.3018 3.43115L23.0791 2.55615C25.1162 2.18506 27.0684 3.53613 27.4395 5.57422C27.4805 5.79688 27.5 6.02393 27.5 6.25098L27.5 19.7422Z" fill-rule="evenodd" fill="#FFFFFF"/>
	<defs/>
</svg>
