<?xml version="1.0" standalone="no"?>
<!DOCTYPE svg PUBLIC "-//W3C//DTD SVG 20010904//EN"
 "http://www.w3.org/TR/2001/REC-SVG-20010904/DTD/svg10.dtd">
<svg version="1.0" xmlns="http://www.w3.org/2000/svg"
 width="752.000000pt" height="752.000000pt" viewBox="0 0 752.000000 752.000000"
 preserveAspectRatio="xMidYMid meet">
<metadata>
Created by potrace 1.16, written by Peter Selinger 2001-2019
</metadata>
<g transform="translate(0.000000,752.000000) scale(0.100000,-0.100000)"
fill="#000000" stroke="none">
<path d="M3723 5049 c-502 -48 -964 -293 -1288 -680 -219 -262 -370 -595 -417
-918 -10 -64 -14 -79 -20 -60 -4 14 -5 1 -2 -29 3 -36 1 -52 -6 -47 -7 4 -10
-35 -10 -119 l0 -126 260 0 260 0 0 98 c0 613 451 1170 1059 1308 179 40 200
33 201 -70 0 -58 -1 -60 -47 -102 -42 -39 -53 -44 -114 -50 -85 -8 -120 -29
-150 -91 -20 -40 -24 -64 -26 -154 0 -58 -6 -123 -12 -145 -6 -21 -11 -65 -11
-97 0 -53 -3 -61 -32 -87 -37 -34 -283 -161 -313 -162 -21 0 -126 42 -136 55
-3 4 -23 8 -45 10 -38 2 -39 1 -48 -41 -8 -33 -14 -41 -25 -36 -33 13 -104 17
-97 5 4 -6 16 -11 27 -11 11 0 17 -5 14 -10 -3 -6 15 -19 42 -30 26 -11 60
-27 76 -36 23 -13 33 -13 62 -3 42 16 52 8 31 -23 -37 -52 -6 -132 63 -168 22
-11 66 -41 97 -66 31 -25 80 -57 109 -70 l53 -24 568 2 569 3 67 32 c37 17 89
51 115 76 27 24 65 54 85 66 83 50 110 120 68 174 -26 32 -25 37 4 37 13 0 40
-13 61 -30 21 -17 49 -30 64 -29 25 0 25 1 5 9 -48 19 -34 29 34 23 43 -3 76
-1 88 5 16 10 11 11 -28 12 -27 0 -48 4 -48 9 0 4 26 26 58 47 39 26 52 39 40
42 -9 2 -30 -4 -47 -12 -46 -24 -54 -21 -47 19 13 68 -34 97 -92 56 -40 -27
-121 -61 -149 -61 -30 0 -71 21 -153 78 -36 25 -80 56 -99 69 -29 20 -37 35
-52 92 -10 38 -27 87 -38 110 -17 32 -21 59 -21 129 0 110 -20 183 -57 208
-19 12 -54 19 -108 22 -47 3 -85 10 -93 18 -7 8 -18 17 -25 21 -7 5 -25 23
-40 41 -21 26 -27 44 -27 81 0 91 42 99 240 45 250 -66 461 -193 643 -383 230
-243 351 -532 373 -894 l7 -117 283 0 c192 0 285 3 289 11 4 6 4 74 -1 152 -5
100 -10 133 -15 112 -6 -20 -7 -9 -5 35 2 40 1 57 -4 45 -8 -18 -9 -18 -9 5
-2 51 -42 216 -81 333 -158 473 -512 875 -965 1097 -318 156 -672 222 -1012
189z m232 -859 c16 16 32 30 37 30 9 0 4 -42 -6 -59 -11 -16 48 -19 79 -4 29
16 30 15 15 -3 -8 -10 -23 -29 -34 -41 l-19 -23 34 0 34 -1 -25 -14 -25 -14
33 -1 c43 0 33 -16 -15 -25 -32 -6 -35 -9 -18 -15 11 -5 16 -9 12 -9 -16 -2
19 -26 71 -51 45 -20 51 -26 38 -36 -9 -6 -12 -14 -8 -18 4 -4 -4 -5 -18 -2
-14 3 -41 8 -61 9 l-36 4 28 -42 c16 -23 35 -48 44 -55 8 -7 15 -19 15 -27 0
-18 -28 -4 -87 45 -24 19 -43 31 -43 27 0 -5 -10 0 -21 11 -22 19 -22 19 -11
-2 9 -16 8 -21 -4 -21 -7 0 -14 5 -14 10 0 6 -2 8 -5 5 -3 -2 1 -26 9 -51 16
-54 13 -59 -9 -19 -14 24 -15 24 -9 3 4 -17 3 -21 -6 -16 -10 6 -12 0 -7 -27
3 -19 2 -41 -3 -48 -5 -8 -10 7 -15 39 -4 28 -11 53 -16 57 -5 3 -9 15 -10 27
0 21 -1 21 -9 2 -5 -11 -9 -15 -10 -10 -1 6 -5 1 -10 -10 -7 -18 -9 -16 -16
13 -5 24 -9 30 -15 20 -5 -7 -9 -9 -9 -4 0 5 -16 -8 -36 -30 -31 -34 -35 -36
-29 -14 3 14 8 39 10 57 2 18 6 36 9 42 3 5 -14 3 -39 -5 l-45 -13 26 34 c26
34 26 35 5 35 l-21 0 23 23 22 22 -22 3 c-14 2 -20 8 -17 17 4 9 -10 20 -39
33 -65 29 -65 39 1 34 l57 -4 -39 36 c-42 38 -40 42 11 27 31 -9 31 -9 28 25
-2 19 -2 34 0 34 2 0 23 -11 46 -25 52 -30 59 -30 59 -7 1 16 2 16 15 -1 13
-18 14 -18 24 2 6 11 11 28 11 38 0 14 6 11 28 -15 l28 -32 29 30z m-336 -448
c14 -67 14 -133 0 -169 -6 -15 -18 -59 -28 -97 -9 -38 -24 -74 -33 -80 -12 -7
-75 -5 -209 7 -175 16 -238 28 -198 41 183 56 347 128 360 156 58 126 79 179
79 195 0 34 17 2 29 -53z m571 37 c7 -17 30 -58 52 -90 21 -33 38 -64 38 -69
0 -23 151 -104 225 -119 93 -20 98 -22 89 -31 -19 -18 -272 -80 -327 -80 -49
0 -58 3 -81 30 -28 34 -66 145 -66 194 1 53 36 196 49 196 5 0 14 -14 21 -31z"/>
<path d="M2038 2953 c-16 -4 -18 -22 -18 -199 l0 -195 43 3 42 3 3 73 3 72 60
0 c33 0 69 5 80 11 79 42 108 113 74 179 -25 48 -61 60 -172 59 -54 -1 -106
-3 -115 -6z"/>
<path d="M2478 2953 c-15 -4 -31 -39 -149 -345 l-19 -48 38 0 c47 0 56 7 73
53 l13 38 76 -3 75 -3 15 -42 c13 -40 17 -43 51 -43 73 0 73 -5 -10 205 l-76
194 -35 0 c-19 -1 -43 -3 -52 -6z"/>
<path d="M2763 2953 c-10 -3 -13 -53 -13 -199 l0 -195 43 3 42 3 3 78 c3 74 4
77 27 77 24 0 80 -60 122 -131 l17 -29 101 3 100 2 15 43 14 42 74 0 73 0 19
-45 c18 -42 22 -45 57 -45 21 0 43 4 49 8 8 5 -12 66 -65 199 -75 191 -76 193
-106 193 -68 0 -68 0 -145 -196 -39 -101 -73 -184 -76 -184 -2 0 -20 25 -40
56 -20 31 -45 65 -56 76 l-20 20 36 32 c51 44 63 85 39 133 -10 21 -29 43 -43
50 -24 12 -240 17 -267 6z"/>
<path d="M3563 2954 c-10 -4 -13 -54 -13 -200 l0 -194 33 0 c52 0 56 7 59 115
l3 100 18 -70 c41 -160 33 -145 78 -145 47 0 53 11 85 147 10 45 22 79 26 77
4 -3 8 -55 8 -115 l0 -110 38 3 37 3 3 198 2 197 -54 0 c-32 0 -60 -5 -68 -13
-7 -8 -24 -56 -37 -108 -13 -52 -27 -98 -31 -102 -4 -4 -20 43 -36 105 l-30
113 -54 2 c-30 1 -61 -1 -67 -3z"/>
<path d="M4178 2954 c-16 -5 -18 -23 -18 -201 l0 -195 119 4 120 3 36 35 c56
54 69 85 69 170 1 84 -17 126 -67 164 -24 18 -44 21 -135 23 -59 1 -115 -1
-124 -3z m164 -75 c26 -7 43 -19 53 -39 19 -37 19 -130 1 -175 -15 -34 -16
-35 -75 -35 l-61 0 0 130 c0 146 -2 143 82 119z"/>
<path d="M4578 2953 c-16 -4 -18 -22 -18 -199 l0 -194 34 0 c63 0 66 4 66 91
l0 79 70 0 70 0 0 -86 0 -85 43 3 42 3 3 198 2 197 -22 0 c-62 -1 -68 -7 -68
-81 l0 -69 -70 0 -70 0 0 75 0 75 -32 -1 c-18 -1 -41 -3 -50 -6z"/>
<path d="M5090 2953 c-12 -3 -143 -319 -158 -380 -3 -11 7 -13 40 -11 40 3 44
6 62 46 l19 42 72 0 72 0 17 -45 c17 -44 19 -45 61 -45 24 0 46 4 49 9 3 5
-28 95 -70 200 l-76 191 -37 -1 c-20 -1 -43 -3 -51 -6z"/>
<path d="M5378 2953 c-16 -4 -18 -22 -18 -199 l0 -194 29 0 c60 0 61 3 61 119
1 122 8 118 40 -21 l22 -98 36 0 c20 0 42 4 48 8 6 4 21 50 34 102 12 52 26
102 31 110 5 9 9 -34 9 -102 l0 -118 29 0 c63 0 61 -6 61 206 l0 194 -47 0
c-89 0 -88 0 -118 -122 -15 -60 -31 -106 -35 -101 -4 4 -20 56 -35 116 l-28
107 -51 -1 c-28 -1 -59 -3 -68 -6z"/>
<path d="M3523 1928 c-17 -8 -23 -20 -23 -45 l0 -33 -70 0 c-40 0 -70 -4 -70
-10 0 -6 33 -10 80 -10 47 0 80 -4 80 -10 0 -5 -18 -10 -39 -10 -55 0 -91 -15
-91 -39 0 -11 6 -22 13 -25 10 -5 10 -7 0 -12 -20 -9 -16 -72 5 -83 26 -14
109 -24 138 -17 38 10 23 18 -35 20 -62 2 -89 23 -72 55 21 38 96 42 96 6 0
-14 -6 -20 -22 -19 -13 0 -23 -5 -23 -13 0 -18 50 -17 78 3 27 19 28 28 2 54
-15 15 -33 20 -75 20 -30 0 -55 5 -55 10 0 6 27 10 60 10 57 0 60 1 60 25 0
23 4 25 40 25 l40 0 0 -90 c0 -87 1 -90 23 -90 21 0 22 2 19 86 -3 79 -2 86
17 91 25 7 28 23 4 23 -10 0 -26 14 -35 30 -17 31 -71 61 -105 59 -10 0 -28
-5 -40 -11z"/>
<path d="M3920 1921 c0 -5 -2 -15 -5 -23 -3 -8 7 -19 27 -28 33 -14 33 -14
-42 -18 -90 -4 -121 -22 -37 -22 56 0 57 -1 57 -28 0 -25 -6 -30 -40 -41 -29
-9 -41 -18 -46 -37 -9 -35 11 -54 60 -54 47 0 66 13 66 47 0 20 5 23 40 23
l40 0 0 -45 c0 -40 3 -45 23 -45 21 0 22 2 19 89 -3 87 -3 90 20 93 l23 4 -25
11 c-14 6 -41 27 -59 47 -30 30 -42 36 -78 36 -24 0 -43 -4 -43 -9z"/>
<path d="M2995 1840 c-4 -6 30 -10 94 -10 79 0 101 -3 101 -14 0 -9 -20 -15
-66 -19 -80 -6 -105 -26 -107 -82 -1 -47 21 -65 80 -65 50 0 58 17 11 22 -25
2 -35 9 -42 30 -15 42 14 68 76 68 l48 0 0 -58 c0 -50 -3 -59 -22 -67 -26 -11
-36 -54 -16 -66 18 -12 88 -11 88 1 0 6 -13 10 -29 10 -33 0 -44 10 -31 29 16
27 63 15 96 -23 29 -34 54 -47 54 -27 0 17 -40 59 -70 71 l-30 12 0 89 c0 83
1 89 21 89 11 0 17 5 14 10 -4 6 -60 10 -135 10 -75 0 -131 -4 -135 -10z"/>
<path d="M4215 1840 c-4 -6 23 -10 74 -10 92 0 109 -15 26 -22 -67 -6 -85 -19
-66 -49 9 -15 10 -24 2 -32 -18 -18 -12 -56 12 -71 12 -7 39 -17 60 -20 20 -4
37 -12 37 -18 0 -9 3 -9 12 0 17 17 58 15 65 -4 16 -43 -86 -56 -129 -17 -14
13 -21 14 -30 5 -19 -19 75 -55 128 -49 52 5 74 21 74 53 0 31 -25 43 -103 47
-73 5 -87 10 -87 37 0 42 72 69 99 37 13 -16 -4 -37 -31 -37 -10 0 -18 -4 -18
-10 0 -14 43 -13 75 2 59 27 12 78 -72 78 -29 0 -53 5 -53 10 0 6 28 10 65 10
65 0 65 0 59 25 -6 23 -4 25 30 25 20 0 36 5 36 10 0 6 -50 10 -129 10 -76 0
-132 -4 -136 -10z"/>
</g>
</svg>
