<svg width="29.999023" height="29.044922" viewBox="0 0 29.999 29.0449" fill="none" xmlns="http://www.w3.org/2000/svg" xmlns:xlink="http://www.w3.org/1999/xlink">
	<desc>
			Created with Pixso.
	</desc>
	<path d="M29.7891 10.7578C29.2637 9.08643 27.7061 7.95557 25.9541 7.97461L20.4922 7.97461L18.833 2.80371C18.1533 0.681641 15.8818 -0.486328 13.7598 0.193848C12.5186 0.59082 11.5469 1.5625 11.1494 2.80371L9.49023 7.97461L4.02832 7.97461C1.7998 7.97754 -0.00390625 9.78662 0 12.0146C0.000976562 13.2998 0.615234 14.5078 1.65332 15.2656L6.09863 18.5166L4.4082 23.7505C3.84668 25.4185 4.4502 27.2559 5.88867 28.2676C7.30273 29.3125 9.23633 29.3027 10.6387 28.2446L14.9912 25.0415L19.3447 28.2407C21.1396 29.5605 23.665 29.1758 24.9854 27.3818C25.7539 26.3364 25.9727 24.9858 25.5742 23.7505L23.8838 18.5166L28.335 15.2656C29.7607 14.2476 30.3506 12.4165 29.7891 10.7578L29.7891 10.7578M26.8604 13.2466L21.6787 17.0337C21.2422 17.3516 21.0596 17.9146 21.2256 18.4287L23.1953 24.5176C23.4551 25.3237 23.0127 26.1885 22.2061 26.4487C21.7373 26.5996 21.2227 26.5166 20.8262 26.2236L15.7314 22.4736C15.291 22.1494 14.6924 22.1494 14.251 22.4736L9.15723 26.2236C8.47754 26.7305 7.51562 26.5908 7.00977 25.9116C6.71094 25.5117 6.62598 24.9917 6.78125 24.5176L8.75684 18.4287C8.92285 17.9146 8.74023 17.3516 8.30371 17.0337L3.12305 13.2466C2.44043 12.7466 2.29102 11.7866 2.79199 11.1025C3.08008 10.7085 3.54004 10.4756 4.02832 10.4746L10.4043 10.4746C10.9473 10.4746 11.4277 10.1245 11.5947 9.60742L13.5322 3.56787C13.792 2.76074 14.6562 2.31787 15.4629 2.57764C15.9326 2.72852 16.3018 3.09766 16.4531 3.56787L18.3906 9.60742C18.5566 10.1245 19.0381 10.4746 19.5811 10.4746L25.957 10.4746C26.8037 10.4756 27.4912 11.1626 27.4902 12.0098C27.4902 12.4985 27.2539 12.9575 26.8604 13.2466L26.8604 13.2466Z" fill-rule="evenodd" fill="#FFFFFF"/>
	<defs/>
</svg>
